<svg width="40" height="39" viewBox="0 0 40 39" fill="none" xmlns="http://www.w3.org/2000/svg">
<path d="M21.5967 15.1183L25.9739 19.4976L25.974 19.4977C26.1338 19.6574 26.3234 19.7841 26.5321 19.8706C26.7408 19.957 26.9645 20.0015 27.1904 20.0015C27.4164 20.0015 27.6401 19.957 27.8488 19.8706C28.0575 19.7841 28.2471 19.6574 28.4069 19.4977C28.5666 19.3379 28.6933 19.1483 28.7798 18.9396C28.8662 18.7309 28.9107 18.5072 28.9107 18.2812C28.9107 18.0553 28.8662 17.8316 28.7798 17.6229C28.6933 17.4142 28.5666 17.2246 28.4069 17.0648L21.0948 9.75277L21.5967 15.1183ZM21.5967 15.1183V28.0312C21.5967 28.4871 21.4156 28.9243 21.0933 29.2466C20.771 29.5689 20.3338 29.75 19.8779 29.75C19.4221 29.75 18.9849 29.5689 18.6626 29.2466C18.3403 28.9243 18.1592 28.4871 18.1592 28.0312V15.1183L13.782 19.4976L13.7819 19.4977C13.6221 19.6574 13.4325 19.7841 13.2238 19.8706C13.0151 19.957 12.7914 20.0015 12.5654 20.0015C12.3395 20.0015 12.1158 19.957 11.9071 19.8706C11.6984 19.7841 11.5088 19.6574 11.349 19.4977C11.1893 19.3379 11.0626 19.1483 10.9761 18.9396C10.8896 18.7309 10.8451 18.5072 10.8451 18.2812C10.8451 18.0553 10.8896 17.8316 10.9761 17.6229C11.0626 17.4142 11.1893 17.2246 11.349 17.0648L18.6611 9.75277L21.5967 15.1183ZM19.2192 9.37907C19.0106 9.46563 18.8211 9.59246 18.6615 9.75232L19.2192 9.37907ZM19.2192 9.37907C19.428 9.29242 19.6519 9.24782 19.8779 9.24782M19.2192 9.37907L19.8779 9.24782M19.8779 9.24782C20.104 9.24782 20.3279 9.29242 20.5367 9.37907M19.8779 9.24782L20.5367 9.37907M20.5367 9.37907C20.7453 9.46564 20.9348 9.59247 21.0944 9.75232L20.5367 9.37907ZM38.8779 19.5C38.8779 15.7422 37.7636 12.0687 35.6759 8.94416C33.5881 5.81963 30.6207 3.38436 27.1489 1.94629C23.6771 0.508224 19.8569 0.131962 16.1712 0.865078C12.4856 1.5982 9.10011 3.40778 6.44291 6.06497C3.78571 8.72217 1.97614 12.1076 1.24302 15.7933C0.509899 19.4789 0.886162 23.2992 2.32423 26.771C3.76229 30.2428 6.19757 33.2102 9.3221 35.2979C12.4466 37.3857 16.1201 38.5 19.8779 38.5C24.9171 38.5 29.7498 36.4982 33.313 32.935C36.8762 29.3718 38.8779 24.5391 38.8779 19.5Z" fill="#D9D9D9" stroke="#7B7B7B"/>
</svg>
