<svg xmlns="http://www.w3.org/2000/svg" width="12.125" height="11.867"><path d="M11.987 10.602a5.86 5.86 0 0 1-1.021-1.193 5.14 5.14 0 0 1-.55-1.957v-2.01a4.398 4.398 0 0 0-3.84-4.374V.543a.543.543 0 1 0-1.087 0v.533a4.398 4.398 0 0 0-3.796 4.366v2.01a5.139 5.139 0 0 1-.55 1.957 5.86 5.86 0 0 1-1.005 1.193.407.407 0 0 0-.138.305v.553c0 .225.182.407.407.407h11.311a.407.407 0 0 0 .407-.407v-.553a.407.407 0 0 0-.138-.305Zm-11.14.451a6.58 6.58 0 0 0 .992-1.22 5.794 5.794 0 0 0 .672-2.38v-2.01a3.556 3.556 0 1 1 7.108 0v2.01c.05.832.279 1.644.671 2.38.281.445.615.854.993 1.22H.846Z" fill="#f6f6f6" fill-rule="evenodd" data-name="Path 29097"/></svg>