<svg width="20" height="18" viewBox="0 0 20 18" fill="none" xmlns="http://www.w3.org/2000/svg">
<path id="Path 29123" d="M14.4078 1.25017e-05C13.5554 -0.00178389 12.7141 0.190038 11.9495 0.560533C11.1848 0.931028 10.5175 1.47019 9.99934 2.13603C9.48123 1.47019 8.81386 0.931028 8.04921 0.560533C7.28456 0.190038 6.44329 -0.00178389 5.59093 1.25017e-05C4.11041 0.00513287 2.69195 0.585728 1.64469 1.61527C0.597428 2.64481 0.00625249 4.03983 0 5.49632C0.0500532 8.02015 1.08083 10.4293 2.8805 12.2286L3.15734 12.5606C5.1456 14.5184 7.3074 16.2979 9.61703 17.8779C9.72917 17.9573 9.86383 18 10.002 18C10.1401 18 10.2748 17.9573 10.3869 17.8779C12.6966 16.2979 14.8583 14.5184 16.8466 12.5606L17.1221 12.2286C18.9207 10.4288 19.9505 8.01976 20 5.49632C19.9934 4.03971 19.4019 2.64469 18.3545 1.61519C17.307 0.585684 15.8884 0.00513061 14.4078 1.25017e-05Z" fill="#171D16"/>
</svg>
