<svg width="28" height="21" viewBox="0 0 28 21" fill="none" xmlns="http://www.w3.org/2000/svg">
<g clip-path="url(#clip0_3593_5570)">
<path d="M26.25 17.5C26.25 17.9641 26.0656 18.4092 25.7374 18.7374C25.4092 19.0656 24.9641 19.25 24.5 19.25H3.5C3.03587 19.25 2.59075 19.0656 2.26256 18.7374C1.93437 18.4092 1.75 17.9641 1.75 17.5V7C1.75 6.53587 1.93437 6.09075 2.26256 5.76256C2.59075 5.43437 3.03587 5.25 3.5 5.25H5.551C6.94267 5.24924 8.27709 4.69596 9.261 3.71175L10.7135 2.26275C11.0408 1.93539 11.4844 1.75103 11.9473 1.75H16.0492C16.5133 1.7501 16.9584 1.93454 17.2865 2.26275L18.7355 3.71175C19.2231 4.1995 19.802 4.5864 20.4392 4.85034C21.0764 5.11427 21.7593 5.25008 22.449 5.25H24.5C24.9641 5.25 25.4092 5.43437 25.7374 5.76256C26.0656 6.09075 26.25 6.53587 26.25 7V17.5ZM3.5 3.5C2.57174 3.5 1.6815 3.86875 1.02513 4.52513C0.368749 5.1815 0 6.07174 0 7L0 17.5C0 18.4283 0.368749 19.3185 1.02513 19.9749C1.6815 20.6313 2.57174 21 3.5 21H24.5C25.4283 21 26.3185 20.6313 26.9749 19.9749C27.6313 19.3185 28 18.4283 28 17.5V7C28 6.07174 27.6313 5.1815 26.9749 4.52513C26.3185 3.86875 25.4283 3.5 24.5 3.5H22.449C21.5211 3.4998 20.6313 3.13115 19.9751 2.47508L18.5255 1.0255C17.8693 0.369077 16.9792 0.000198231 16.051 0H11.949C11.0211 0.00019818 10.1313 0.368851 9.47508 1.02492L8.0255 2.4745C7.36928 3.13092 6.47918 3.4998 5.551 3.5H3.5Z" fill="black"/>
<path d="M14 15.75C13.1347 15.75 12.2888 15.4934 11.5694 15.0127C10.8499 14.532 10.2892 13.8487 9.95803 13.0492C9.62689 12.2498 9.54025 11.3701 9.70906 10.5215C9.87787 9.67282 10.2946 8.89327 10.9064 8.28141C11.5183 7.66956 12.2978 7.25288 13.1465 7.08407C13.9951 6.91526 14.8748 7.0019 15.6742 7.33303C16.4737 7.66416 17.1569 8.22492 17.6377 8.94438C18.1184 9.66385 18.375 10.5097 18.375 11.375C18.375 11.9495 18.2618 12.5184 18.042 13.0492C17.8221 13.58 17.4998 14.0623 17.0936 14.4686C16.6873 14.8749 16.205 15.1971 15.6742 15.417C15.1434 15.6368 14.5745 15.75 14 15.75ZM14 17.5C15.2114 17.5 16.3956 17.1408 17.4029 16.4678C18.4101 15.7947 19.1952 14.8381 19.6588 13.7189C20.1223 12.5997 20.2436 11.3682 20.0073 10.1801C19.771 8.99194 19.1876 7.90057 18.331 7.04397C17.4744 6.18738 16.3831 5.60403 15.1949 5.36769C14.0068 5.13136 12.7753 5.25265 11.6561 5.71624C10.5369 6.17983 9.58027 6.96488 8.90725 7.97214C8.23423 8.97939 7.875 10.1636 7.875 11.375C7.875 12.9995 8.52031 14.5574 9.66897 15.706C10.8176 16.8547 12.3755 17.5 14 17.5ZM5.25 7.875C5.25 8.04806 5.19868 8.21723 5.10254 8.36113C5.00639 8.50502 4.86973 8.61717 4.70985 8.6834C4.54996 8.74962 4.37403 8.76695 4.2043 8.73319C4.03456 8.69943 3.87865 8.61609 3.75628 8.49372C3.63391 8.37135 3.55058 8.21544 3.51681 8.04571C3.48305 7.87597 3.50038 7.70004 3.56661 7.54016C3.63283 7.38027 3.74498 7.24361 3.88888 7.14747C4.03277 7.05132 4.20194 7 4.375 7C4.60706 7 4.82962 7.09219 4.99372 7.25628C5.15781 7.42038 5.25 7.64294 5.25 7.875Z" fill="black"/>
</g>
<defs>
<clipPath id="clip0_3593_5570">
<rect width="28" height="21" fill="white"/>
</clipPath>
</defs>
</svg>
