<svg xmlns="http://www.w3.org/2000/svg" width="9.808" height="11.384" viewBox="15.362 1.808 9.808 11.384"><path d="m20.266 3.894-.44-.56c-1.031-1.312-2.923-.86-3.606.791-.32.777-.393 1.898.193 3.328.563 1.378 1.737 3.027 3.853 4.824 2.116-1.797 3.289-3.447 3.853-4.824.586-1.431.514-2.552.193-3.328-.683-1.65-2.575-2.104-3.607-.791l-.44.56Zm0 9.298c-9.4-7.69-2.894-13.69-.108-10.516.037.042.073.085.108.13.034-.045.07-.088.108-.13 2.785-3.176 9.292 2.826-.108 10.516Z" fill="#a1a1a1" fill-rule="evenodd" data-name="Path 29047"/></svg>