<svg xmlns="http://www.w3.org/2000/svg" width="10.214" height="11.383" viewBox="3.867 1.496 10.214 11.383"><path d="M13.665 7.733 10.667 6.9v-.194a2.75 2.75 0 1 0-2.466 0v1.81h-.58l-.438-.535a2.144 2.144 0 0 0-2.998-.317.495.495 0 0 0-.19.793l3.994 4.423h6.093V8.28a.57.57 0 0 0-.417-.548ZM7.442 4.248a1.992 1.992 0 1 1 3.225 1.563V4.248a1.233 1.233 0 1 0-2.466 0v1.563a1.989 1.989 0 0 1-.76-1.563Zm5.88 7.873H8.327l-3.56-3.942a1.386 1.386 0 0 1 1.83.282l.666.814H8.96V4.248a.474.474 0 0 1 .948 0v3.229l3.415.948v3.696Z" fill="#a1a1a1" fill-rule="evenodd" data-name="Path 29060"/></svg>