<svg width="26" height="26" viewBox="0 0 26 26" fill="none" xmlns="http://www.w3.org/2000/svg">
<g id="Group 77545">
<g id="Group 77546">
<path id="Vector" d="M0 25.28H25.28V0H0V25.28ZM1.68533 1.68533H23.5947V23.5947H1.68533V1.68533Z" fill="#C4C5C3"/>
</g>
<g id="Group 77547">
<path id="Vector_2" d="M14.48 3.93359H12.6406V5.77292H14.48V3.93359Z" fill="#C4C5C3"/>
<path id="Vector_3" d="M14.1863 17.7861C14.1023 17.9295 13.9824 18.0485 13.8382 18.1313C13.6941 18.2142 13.5309 18.2579 13.3647 18.2583C13.2169 18.2583 13.071 18.2238 12.9388 18.1576C12.8066 18.0914 12.6917 17.9953 12.6031 17.8769C12.5145 17.7585 12.4548 17.6211 12.4286 17.4756C12.4024 17.3301 12.4104 17.1805 12.4522 17.0387L14.3308 10.6514C14.5197 10.0102 14.4556 9.32089 14.1515 8.72556C13.8474 8.13022 13.3265 7.6742 12.6962 7.45146C12.0659 7.22871 11.3742 7.2562 10.7636 7.52827C10.1529 7.80033 9.66991 8.29625 9.41402 8.91384L8.79688 10.4008L10.3535 11.0468L10.9707 9.55979C11.0612 9.34051 11.2325 9.16435 11.4491 9.06767C11.6657 8.97098 11.9112 8.96116 12.1349 9.04022C12.3586 9.11928 12.5433 9.28119 12.6511 9.49254C12.7588 9.70389 12.7813 9.94854 12.714 10.176L10.8353 16.5632C10.7197 16.9564 10.6973 17.3711 10.7699 17.7744C10.8426 18.1777 11.0082 18.5585 11.2537 18.8866C11.4992 19.2147 11.8178 19.4811 12.1842 19.6646C12.5506 19.8481 12.9547 19.9437 13.3645 19.9437C13.8253 19.9428 14.2779 19.8216 14.6774 19.592C15.0769 19.3624 15.4095 19.0325 15.6423 18.6348L16.4376 17.27L14.9816 16.4213L14.1863 17.7861Z" fill="#C4C5C3"/>
</g>
</g>
</svg>
