<svg width="26" height="26" viewBox="0 0 26 26" fill="none" xmlns="http://www.w3.org/2000/svg">
<g id="Group 77545">
<g id="Group 77546">
<path id="Vector" d="M0 25.28H25.28V0H0V25.28ZM1.68533 1.68533H23.5947V23.5947H1.68533V1.68533Z" fill="#181D17"/>
</g>
<g id="Group 77547">
<path id="Vector_2" d="M14.48 3.93359H12.6406V5.77292H14.48V3.93359Z" fill="#181D17"/>
<path id="Vector_3" d="M14.1863 17.7866C14.1023 17.93 13.9824 18.049 13.8382 18.1318C13.6941 18.2146 13.5309 18.2584 13.3647 18.2588C13.2169 18.2588 13.071 18.2243 12.9388 18.1581C12.8066 18.0919 12.6917 17.9958 12.6031 17.8774C12.5145 17.759 12.4548 17.6216 12.4286 17.4761C12.4024 17.3306 12.4104 17.181 12.4522 17.0392L14.3308 10.6519C14.5197 10.0107 14.4556 9.32138 14.1515 8.72604C13.8474 8.13071 13.3265 7.67469 12.6962 7.45194C12.0659 7.2292 11.3742 7.25669 10.7636 7.52876C10.1529 7.80082 9.66991 8.29674 9.41402 8.91432L8.79688 10.4013L10.3535 11.0473L10.9707 9.56028C11.0612 9.341 11.2325 9.16484 11.4491 9.06815C11.6657 8.97147 11.9112 8.96165 12.1349 9.04071C12.3586 9.11977 12.5433 9.28168 12.6511 9.49303C12.7588 9.70437 12.7813 9.94902 12.714 10.1765L10.8353 16.5637C10.7197 16.9569 10.6973 17.3716 10.7699 17.7749C10.8426 18.1782 11.0082 18.559 11.2537 18.8871C11.4992 19.2152 11.8178 19.4816 12.1842 19.6651C12.5506 19.8486 12.9547 19.9442 13.3645 19.9442C13.8253 19.9433 14.2779 19.8221 14.6774 19.5925C15.0769 19.3629 15.4095 19.0329 15.6423 18.6353L16.4376 17.2705L14.9816 16.4218L14.1863 17.7866Z" fill="#181D17"/>
</g>
</g>
</svg>
