<svg width="25" height="25" viewBox="0 0 25 25" fill="none" xmlns="http://www.w3.org/2000/svg">
<g id="instagram" clip-path="url(#clip0_83_346)">
<g id="Group 77073">
<path id="Path 29188" d="M12.5 0C9.10781 0 8.68125 0.015625 7.34844 0.075C6.31094 0.0963404 5.28451 0.292857 4.3125 0.65625C3.47827 0.97003 2.72264 1.46223 2.09844 2.09844C1.46262 2.72296 0.97048 3.4785 0.65625 4.3125C0.292369 5.28275 0.0958268 6.30772 0.075 7.34375C0.015625 8.67969 0 9.10469 0 12.5C0 15.8953 0.015625 16.3187 0.075 17.6516C0.0963105 18.6891 0.292828 19.7155 0.65625 20.6875C0.977641 21.5176 1.46867 22.2715 2.09797 22.9011C2.72726 23.5306 3.48097 24.022 4.31094 24.3438C5.28179 24.7074 6.30724 24.9039 7.34375 24.925C8.67812 24.9844 9.10312 25 12.5 25C15.8969 25 16.3188 24.9844 17.6531 24.925C18.6906 24.9033 19.717 24.7068 20.6891 24.3438C21.519 24.022 22.2727 23.5306 22.902 22.9011C23.5313 22.2715 24.0224 21.5176 24.3438 20.6875C24.7062 19.7158 24.9027 18.69 24.925 17.6531C24.9844 16.3203 25 15.8953 25 12.5C25 9.10469 24.9844 8.67969 24.925 7.34375C24.9026 6.30789 24.7061 5.28317 24.3438 4.3125C24.0296 3.47848 23.5374 2.72293 22.9016 2.09844C22.2775 1.46199 21.5219 0.969758 20.6875 0.65625C19.7156 0.292587 18.6891 0.0960609 17.6516 0.075C16.3172 0.015625 15.8937 0 12.4969 0H12.5ZM11.3797 2.25312H12.5C15.8375 2.25312 16.2328 2.26406 17.5521 2.325C18.3449 2.33429 19.1303 2.47963 19.874 2.75469C20.4171 2.95591 20.9083 3.27626 21.3115 3.69219C21.7267 4.09529 22.046 4.58657 22.2458 5.12969C22.5219 5.87253 22.6673 6.65756 22.6755 7.45C22.7365 8.76719 22.749 9.1625 22.749 12.4984C22.749 15.8344 22.7365 16.2312 22.6755 17.5505C22.6663 18.3429 22.5209 19.1277 22.2458 19.8708C22.0371 20.4093 21.7181 20.8982 21.3092 21.3061C20.9004 21.7141 20.4108 22.032 19.8719 22.2396C19.1291 22.516 18.3441 22.6619 17.5516 22.6708C16.2344 22.7302 15.8391 22.7443 12.4995 22.7443C9.1599 22.7443 8.7651 22.7302 7.4474 22.6708C6.65582 22.661 5.87182 22.5151 5.12969 22.2396C4.58642 22.0385 4.09519 21.7182 3.69219 21.3021C3.27617 20.899 2.95582 20.4078 2.75469 19.8646C2.4794 19.1215 2.33405 18.3366 2.325 17.5443C2.26562 16.2271 2.25312 15.8318 2.25312 12.4922C2.25312 9.1526 2.26562 8.76094 2.325 7.44375C2.33457 6.65079 2.48045 5.86539 2.75625 5.12187C2.95747 4.57871 3.27782 4.08752 3.69375 3.68437C4.09686 3.26915 4.58813 2.94982 5.13125 2.75C5.87315 2.47509 6.65678 2.32974 7.44792 2.32031C8.60104 2.26823 9.04792 2.25156 11.3776 2.25V2.25312H11.3797ZM19.1734 4.32812C18.8768 4.32812 18.5868 4.4161 18.3401 4.58092C18.0934 4.74574 17.9011 4.98001 17.7876 5.2541C17.6741 5.52819 17.6444 5.82979 17.7023 6.12076C17.7601 6.41173 17.903 6.67901 18.1128 6.88878C18.3226 7.09856 18.5898 7.24143 18.8808 7.2993C19.1718 7.35718 19.4734 7.32748 19.7475 7.21394C20.0216 7.10041 20.2558 6.90815 20.4206 6.66148C20.5855 6.41481 20.6734 6.1248 20.6734 5.82812C20.6734 5.4303 20.5154 5.04877 20.2341 4.76746C19.9528 4.48616 19.5713 4.32812 19.1734 4.32812ZM12.5 6.08125C11.2303 6.08166 9.98929 6.45855 8.93381 7.16427C7.87834 7.86998 7.05582 8.87282 6.57027 10.046C6.08472 11.2191 5.95795 12.5099 6.20598 13.7551C6.454 15.0003 7.0657 16.144 7.96371 17.0416C8.86172 17.9392 10.0057 18.5503 11.251 18.7978C12.4964 19.0452 13.7871 18.9178 14.96 18.4317C16.133 17.9455 17.1354 17.1225 17.8406 16.0667C18.5458 15.0109 18.9221 13.7697 18.9219 12.5C18.9218 11.6568 18.7556 10.8219 18.4328 10.043C18.11 9.26408 17.637 8.55637 17.0406 7.96031C16.4443 7.36424 15.7363 6.8915 14.9572 6.56909C14.1781 6.24668 13.3432 6.08091 12.5 6.08125ZM12.5 8.33333C13.3241 8.33333 14.1297 8.5777 14.8149 9.03554C15.5001 9.49338 16.0341 10.1441 16.3495 10.9055C16.6649 11.6668 16.7474 12.5046 16.5866 13.3129C16.4258 14.1211 16.029 14.8636 15.4463 15.4463C14.8636 16.029 14.1211 16.4258 13.3129 16.5866C12.5046 16.7474 11.6668 16.6649 10.9055 16.3495C10.1441 16.0341 9.49338 15.5001 9.03554 14.8149C8.5777 14.1297 8.33333 13.3241 8.33333 12.5C8.33333 11.3949 8.77232 10.3351 9.55372 9.55372C10.3351 8.77232 11.3949 8.33333 12.5 8.33333Z" fill="white"/>
</g>
</g>
<defs>
<clipPath id="clip0_83_346">
<rect width="25" height="25" fill="white"/>
</clipPath>
</defs>
</svg>
