<svg xmlns="http://www.w3.org/2000/svg" width="12.499" height="20" viewBox="358 60 12.499 20"><g data-name="Group 75862"><path d="M358.625 68.125c.345 0 .625.28.625.625V70a5 5 0 1 0 9.999 0v-1.25a.625.625 0 1 1 1.25 0V70a6.25 6.25 0 0 1-5.625 6.218v2.532h3.75a.625.625 0 0 1 0 1.25h-8.75a.625.625 0 0 1 0-1.25h3.75v-2.532A6.25 6.25 0 0 1 358 70v-1.25c0-.345.28-.625.625-.625Z" fill="#7b7b7b" fill-rule="evenodd" data-name="Path 29054"/><path d="M366.75 70a2.5 2.5 0 1 1-5 0v-6.25a2.5 2.5 0 1 1 5 0V70Zm-2.5-10a3.75 3.75 0 0 0-3.75 3.75V70a3.75 3.75 0 1 0 7.499 0v-6.25a3.75 3.75 0 0 0-3.75-3.75Z" fill="#7b7b7b" fill-rule="evenodd" data-name="Path 29055"/></g></svg>