<svg width="36" height="36" viewBox="0 0 36 36" fill="none" xmlns="http://www.w3.org/2000/svg">
<g id="qrcode" clip-path="url(#clip0_3593_5950)">
<path id="Path 29191" d="M0 0V16.359H16.359V0H0ZM19.641 0V16.359H36V0H19.641ZM3.258 3.258H13.1017V13.1017H3.258V3.258ZM22.8983 3.258H32.742V13.1017H22.8983V3.258ZM6.53925 6.58575V9.84375H9.84375V6.58575H6.53925ZM26.1562 6.58575V9.84375H29.4143V6.58575H26.1562ZM0 19.641V36H16.359V19.641H0ZM19.641 19.641V36H22.899V26.2035H26.157V29.4615H36V19.641H32.742V22.899H29.4143V19.641H19.641ZM3.258 22.8983H13.1017V32.742H3.258V22.8983ZM6.53925 26.1562V29.4607H9.84375V26.1562H6.53925ZM26.1562 32.742V36H29.4143V32.742H26.1562ZM32.742 32.742V36H36V32.742H32.742Z" fill="black"/>
</g>
<defs>
<clipPath id="clip0_3593_5950">
<rect width="36" height="36" fill="white"/>
</clipPath>
</defs>
</svg>
