<svg width="20" height="19" viewBox="0 0 20 19" fill="none" xmlns="http://www.w3.org/2000/svg">
<g clip-path="url(#clip0_1333_24582)">
<rect width="19.6818" height="18.8261" fill="#181D17"/>
<path d="M12.6557 6.73438H14.3366C14.7824 6.73438 15.21 6.91147 15.5252 7.2267C15.8404 7.54193 16.0175 7.96947 16.0175 8.41528V16.4836C16.0175 16.9294 15.8404 17.3569 15.5252 17.6722C15.21 17.9874 14.7824 18.1645 14.3366 18.1645H4.25121C3.80541 18.1645 3.37787 17.9874 3.06264 17.6722C2.74741 17.3569 2.57031 16.9294 2.57031 16.4836V8.41528C2.57031 7.96947 2.74741 7.54193 3.06264 7.2267C3.37787 6.91147 3.80541 6.73438 4.25121 6.73438H5.93211" stroke="#F6F6F6" stroke-width="1.34472" stroke-linecap="round" stroke-linejoin="round"/>
<path d="M12.6533 4.04149L9.29149 0.679688L5.92969 4.04149" stroke="#F6F6F6" stroke-width="1.34472" stroke-linecap="round" stroke-linejoin="round"/>
<path d="M9.29688 12.1519V0.679688" stroke="#F6F6F6" stroke-width="1.34472" stroke-linecap="round" stroke-linejoin="round"/>
</g>
<defs>
<clipPath id="clip0_1333_24582">
<rect width="19.6818" height="18.8261" fill="white"/>
</clipPath>
</defs>
</svg>
