<svg width="34" height="34" viewBox="0 0 34 34" fill="none" xmlns="http://www.w3.org/2000/svg">
<path d="M24.9671 28.0881C25.6387 27.4165 26.4137 27.0806 27.292 27.0806C28.1702 27.0806 28.9194 27.4165 29.5393 28.0881C30.2109 28.7597 30.5467 29.5347 30.5467 30.4129C30.5467 31.2912 30.2109 32.0662 29.5393 32.7378C28.9194 33.3577 28.1702 33.6677 27.292 33.6677C26.4137 33.6677 25.6387 33.3577 24.9671 32.7378C24.2955 32.0662 23.9597 31.2912 23.9597 30.4129C23.9597 29.5347 24.2955 28.7597 24.9671 28.0881ZM0.788685 0.654865H6.21333L7.76323 3.90965H32.2516C32.7166 3.90965 33.1041 4.09048 33.4141 4.45212C33.724 4.7621 33.879 5.14957 33.879 5.61454C33.879 5.66621 33.8015 5.92452 33.6465 6.38949L27.7569 17.0838C27.137 18.2204 26.1812 18.7887 24.8896 18.7887H12.5679L11.0955 21.501L11.018 21.7335C11.018 21.9918 11.1472 22.121 11.4055 22.121H30.5467V25.4533H10.708C9.82976 25.4533 9.05481 25.1174 8.38319 24.4458C7.76323 23.7742 7.45325 22.9992 7.45325 22.121C7.45325 21.6043 7.58241 21.0877 7.84073 20.5711L10.0881 16.4638L4.12097 3.90965H0.788685V0.654865ZM8.38319 28.0881C9.05481 27.4165 9.82976 27.0806 10.708 27.0806C11.5863 27.0806 12.3613 27.4165 13.0329 28.0881C13.7045 28.7597 14.0403 29.5347 14.0403 30.4129C14.0403 31.2912 13.7045 32.0662 13.0329 32.7378C12.3613 33.3577 11.5863 33.6677 10.708 33.6677C9.82976 33.6677 9.05481 33.3577 8.38319 32.7378C7.76323 32.0662 7.45325 31.2912 7.45325 30.4129C7.45325 29.5347 7.76323 28.7597 8.38319 28.0881Z" fill="black"/>
</svg>
