<svg xmlns="http://www.w3.org/2000/svg" width="24" height="19" viewBox="0 0 24 19" fill="none">
    <g clip-path="url(#clip0_2061_1384)">
        <path d="M10.9434 14.3427L15.0012 10.2849L19.0589 14.3427L20.1429 13.2586L16.0852 9.20037L20.1429 5.14266L19.0589 4.05859L15.0012 8.1163L10.9434 4.05859L9.85938 5.14266L13.9171 9.20037L9.85938 13.2581L10.9434 14.3427Z" fill="#7B7B7B"/>
        <path d="M22.6723 0H9.38338C9.22729 0.000125027 9.07286 0.0318944 8.9294 0.0933884C8.78595 0.154882 8.65645 0.244824 8.54873 0.357778L0.822266 8.51102V9.89102L8.54771 18.0422C8.65543 18.1552 8.78492 18.2451 8.92838 18.3066C9.07184 18.3681 9.22627 18.3999 9.38235 18.4H22.6712C22.9761 18.3996 23.2684 18.2783 23.484 18.0627C23.6995 17.8471 23.8208 17.5549 23.8212 17.25V1.15C23.8208 0.845302 23.6997 0.553185 23.4843 0.337636C23.269 0.122086 22.977 0.000675936 22.6723 0ZM22.2889 16.8667H9.54693L2.3556 9.27769V9.12435L9.54693 1.53333H22.2889V16.8667Z" fill="#7B7B7B"/>
    </g>
    <defs>
        <clipPath id="clip0_2061_1384">
            <rect width="23" height="18.4" fill="white" transform="translate(0.822266)"/>
        </clipPath>
    </defs>
</svg>