<svg width="29" height="17" viewBox="0 0 29 17" fill="none" xmlns="http://www.w3.org/2000/svg">
<path d="M7.78434 1.80539C3.48551 1.80539 0.00131416 4.94229 0.00131416 9.04439C0.00131416 13.0258 3.48551 16.2834 7.78434 16.2834H14.2702H20.756C25.0545 16.2834 28.5391 13.0258 28.5391 9.04439C28.5391 4.94229 25.0545 1.80539 20.756 1.80539H14.2702H7.78434Z" fill="#95A5A6"/>
<path d="M7.78434 0.598816C3.48551 0.598816 0.00131416 3.73572 0.00131416 7.83782C0.00131416 11.8193 3.48551 15.0768 7.78434 15.0768H14.2702H20.756C25.0545 15.0768 28.5391 11.8193 28.5391 7.83782C28.5391 3.73572 25.0545 0.598816 20.756 0.598816H14.2702H7.78434Z" fill="#BDC3C7"/>
<path d="M7.78395 3.01197C4.9185 3.01197 2.59527 5.18367 2.59527 7.83797C2.59527 10.4923 4.9185 12.664 7.78395 12.664H14.2698H20.7557C23.6212 12.664 25.9443 10.4923 25.9443 7.83797C25.9443 5.18367 23.6212 3.01197 20.7557 3.01197H14.2698H7.78395Z" fill="#2ECC71"/>
<path d="M7.78395 3.01197C4.9185 3.01197 2.59527 5.18367 2.59527 7.83797C2.59527 7.95862 2.64975 8.19992 2.6757 8.44122C2.99739 6.02822 5.13902 4.21847 7.78395 4.21847H14.2698H20.7557C23.4006 4.21847 25.5427 6.02822 25.8633 8.44122C25.89 8.19992 25.9443 7.95862 25.9443 7.83797C25.9443 5.18367 23.6212 3.01197 20.7557 3.01197H14.2698H7.78395Z" fill="#27AE60"/>
<path d="M14.3023 6.99426L14.2724 8.44215C14.2205 10.7345 16.3051 12.6649 18.8125 12.6649H20.7583C23.6237 12.6649 25.947 10.4932 25.947 7.8389C25.947 7.3563 25.851 6.99435 25.7446 6.6324L14.3023 6.99426Z" fill="#7F8C8D"/>
<path d="M18.8116 3.01267C16.3042 3.01267 14.2715 4.82242 14.2715 7.23542C14.2715 9.52777 16.3042 11.4582 18.8116 11.4582H21.4059C23.9134 11.4582 25.946 9.52777 25.946 7.23542C25.946 4.82242 23.9134 3.01267 21.4059 3.01267H18.8116Z" fill="#ECF0F1"/>
<path d="M17.5158 4.21848C17.1578 4.21848 16.8672 4.33916 16.8672 4.70111V8.56185C16.8672 8.80315 17.1578 9.04448 17.5158 9.04448C17.8738 9.04448 18.1644 8.80315 18.1644 8.56185V4.70111C18.1644 4.33916 17.8738 4.21848 17.5158 4.21848Z" fill="#BDC3C7"/>
<path d="M20.1105 4.21848C19.7525 4.21848 19.4619 4.33916 19.4619 4.70111V8.56185C19.4619 8.80315 19.7525 9.04448 20.1105 9.04448C20.4685 9.04448 20.7591 8.80315 20.7591 8.56185V4.70111C20.7591 4.33916 20.4685 4.21848 20.1105 4.21848Z" fill="#BDC3C7"/>
<path d="M22.7052 4.21848C22.3472 4.21848 22.0566 4.33916 22.0566 4.70111V8.56185C22.0566 8.80315 22.3472 9.04448 22.7052 9.04448C23.0632 9.04448 23.3538 8.80315 23.3538 8.56185V4.70111C23.3538 4.33916 23.0632 4.21848 22.7052 4.21848Z" fill="#BDC3C7"/>
</svg>
