<svg width="29" height="18" viewBox="0 0 29 18" fill="none" xmlns="http://www.w3.org/2000/svg">
<path d="M20.7547 2.10935C25.0535 2.10935 28.5377 5.48199 28.5377 9.89237C28.5377 14.173 25.0535 17.6754 20.7547 17.6754H14.2689H7.78302C3.48459 17.6754 0 14.173 0 9.89237C0 5.48199 3.48459 2.10935 7.78302 2.10935H14.2689H20.7547Z" fill="#95A5A6"/>
<path d="M20.7547 0.812103C25.0535 0.812103 28.5377 4.18475 28.5377 8.59513C28.5377 12.8758 25.0535 16.3781 20.7547 16.3781H14.2689H7.78302C3.48459 16.3781 0 12.8758 0 8.59513C0 4.18475 3.48459 0.812103 7.78302 0.812103H14.2689H20.7547Z" fill="#BDC3C7"/>
<path d="M20.7551 3.40661C23.6206 3.40661 25.9438 5.74152 25.9438 8.59529C25.9438 11.4491 23.6206 13.784 20.7551 13.784H14.2693H7.78341C4.91783 13.784 2.59473 11.4491 2.59473 8.59529C2.59473 5.74152 4.91783 3.40661 7.78341 3.40661H14.2693H20.7551Z" fill="#702015"/>
<path d="M20.7551 3.40661C23.6206 3.40661 25.9438 5.74151 25.9438 8.59529C25.9438 8.72501 25.8893 8.98444 25.8634 9.24388C25.5417 6.64953 23.4 4.70378 20.7551 4.70378H14.2693H7.78341C5.13848 4.70378 2.99633 6.64953 2.6758 9.24388C2.64908 8.98444 2.59473 8.72501 2.59473 8.59529C2.59473 5.74151 4.91783 3.40661 7.78341 3.40661H14.2693H20.7551Z" fill="#702015"/>
<path d="M14.2368 7.68817L14.2666 9.24487C14.3185 11.7095 12.234 13.785 9.72653 13.785H7.78078C4.91533 13.785 2.5921 11.4501 2.5921 8.59629C2.5921 8.07742 2.68809 7.68827 2.79446 7.29912L14.2368 7.68817Z" fill="#7F8C8D"/>
<path d="M9.72748 3.40736C12.2349 3.40736 14.2676 5.35312 14.2676 7.94746C14.2676 10.4121 12.2349 12.4876 9.72748 12.4876H7.13314C4.62571 12.4876 2.59305 10.4121 2.59305 7.94746C2.59305 5.35312 4.62571 3.40736 7.13314 3.40736H9.72748Z" fill="#ECF0F1"/>
<path d="M11.0233 4.7038C11.3813 4.7038 11.6719 4.83355 11.6719 5.2227V9.37358C11.6719 9.63301 11.3813 9.89248 11.0233 9.89248C10.6653 9.89248 10.3747 9.63301 10.3747 9.37358V5.2227C10.3747 4.83355 10.6653 4.7038 11.0233 4.7038Z" fill="#BDC3C7"/>
<path d="M8.42856 4.7038C8.78658 4.7038 9.07715 4.83355 9.07715 5.2227V9.37358C9.07715 9.63301 8.78658 9.89248 8.42856 9.89248C8.07054 9.89248 7.77998 9.63301 7.77998 9.37358V5.2227C7.77998 4.83355 8.07054 4.7038 8.42856 4.7038Z" fill="#BDC3C7"/>
<path d="M5.83384 4.7038C6.19186 4.7038 6.48242 4.83355 6.48242 5.2227V9.37358C6.48242 9.63301 6.19186 9.89248 5.83384 9.89248C5.47582 9.89248 5.18525 9.63301 5.18525 9.37358V5.2227C5.18525 4.83355 5.47582 4.7038 5.83384 4.7038Z" fill="#BDC3C7"/>
</svg>
