<svg xmlns="http://www.w3.org/2000/svg" width="13.212" height="15.245" viewBox="3.375 0 13.212 15.245"><path d="M16.587 3.049c0 .561-.455 1.016-1.016 1.016h-.508v9.147c0 1.123-.91 2.033-2.033 2.033H6.932A2.033 2.033 0 0 1 4.9 13.212V4.065h-.508A1.016 1.016 0 0 1 3.375 3.05V2.033c0-.562.455-1.017 1.016-1.017h3.557C7.948.455 8.403 0 8.965 0h2.032c.562 0 1.017.455 1.017 1.016h3.557c.561 0 1.016.455 1.016 1.017v1.016ZM6.036 4.065l-.12.06v9.087c0 .562.455 1.017 1.016 1.017h6.098c.561 0 1.016-.455 1.016-1.017V4.125l-.12-.06h-7.89ZM4.391 3.05V2.033h11.18v1.016H4.39Z" fill-rule="evenodd" data-name="Path 29002"/></svg>