<svg xmlns="http://www.w3.org/2000/svg" width="18.947" height="17.684" viewBox="9243.003 -21376.688 18.947 17.684"><g data-name="CompositeLayer"><path d="m9245.68-21363.734.903-.897a8.88 8.88 0 0 1-2.273-3.215c1.282-3.202 4.819-5.684 8.166-5.684a7.819 7.819 0 0 1 2.526.455l.98-.985a9.297 9.297 0 0 0-3.506-.733 10.54 10.54 0 0 0-9.436 6.733.632.632 0 0 0 0 .43 10.105 10.105 0 0 0 2.64 3.896Z" fill="#fff" fill-rule="evenodd" data-name="Path 29040"/><path d="M9261.912-21368.06a10.358 10.358 0 0 0-3.625-4.7l3.032-3.037-.89-.89-16.794 16.793.89.89 3.221-3.22a9.657 9.657 0 0 0 4.73 1.326 10.54 10.54 0 0 0 9.436-6.733.632.632 0 0 0 0-.43Zm-6.909.215a2.526 2.526 0 0 1-3.79 2.172l3.436-3.436c.227.383.35.819.354 1.264Zm-2.526 5.684a8.242 8.242 0 0 1-3.79-.998l1.605-1.604a3.79 3.79 0 0 0 5.273-5.274l1.813-1.813a9.183 9.183 0 0 1 3.265 4.005c-1.282 3.202-4.819 5.684-8.166 5.684Z" fill="#fff" fill-rule="evenodd" data-name="Path 29042"/><path d="M9249.949-21368.015a2.526 2.526 0 0 1 2.337-2.337l1.143-1.15a3.79 3.79 0 0 0-4.63 4.63l1.15-1.143Z" fill="#fff" fill-rule="evenodd" data-name="Path 29041"/></g></svg>